<?xml version="1.0" standalone="no"?>
<!DOCTYPE svg PUBLIC "-//W3C//DTD SVG 20010904//EN"
 "http://www.w3.org/TR/2001/REC-SVG-20010904/DTD/svg10.dtd">
<svg version="1.0" xmlns="http://www.w3.org/2000/svg"
 width="192.000000pt" height="192.000000pt" viewBox="0 0 192.000000 192.000000"
 preserveAspectRatio="xMidYMid meet">

<g transform="translate(0.000000,192.000000) scale(0.100000,-0.100000)"
fill="#000000" stroke="none">
<path d="M115 1901 c-48 -22 -79 -54 -100 -103 -13 -33 -15 -138 -15 -840 0
-759 1 -805 19 -843 22 -48 54 -79 103 -100 33 -13 138 -15 840 -15 759 0 805
1 843 19 48 22 79 54 100 103 13 33 15 138 15 838 0 700 -2 805 -15 838 -21
49 -52 81 -100 103 -38 18 -83 19 -845 19 -762 0 -807 -1 -845 -19z m1019
-350 c82 -33 166 -116 197 -196 34 -86 34 -244 0 -328 -26 -65 -114 -162 -156
-173 -14 -3 -25 -9 -25 -12 0 -3 61 -117 135 -253 74 -136 135 -250 135 -253
0 -4 -50 -5 -112 -4 l-111 3 -126 232 -125 233 -128 0 -128 0 0 -235 0 -235
-95 0 -95 0 0 626 0 625 288 -3 c275 -3 289 -4 346 -27z"/>
<path d="M692 1193 l3 -208 110 -3 c266 -7 359 46 359 203 -1 75 -17 124 -52
158 -51 49 -87 57 -262 57 l-160 0 2 -207z"/>
</g>
</svg>
