<?xml version="1.0" standalone="no"?>
<!DOCTYPE svg PUBLIC "-//W3C//DTD SVG 20010904//EN"
 "http://www.w3.org/TR/2001/REC-SVG-20010904/DTD/svg10.dtd">
<svg version="1.0" xmlns="http://www.w3.org/2000/svg"
 width="180.000000pt" height="180.000000pt" viewBox="0 0 180.000000 180.000000"
 preserveAspectRatio="xMidYMid meet">

<g transform="translate(0.000000,180.000000) scale(0.100000,-0.100000)"
fill="#000000" stroke="none">
<path d="M105 1781 c-48 -22 -69 -44 -90 -94 -13 -32 -15 -134 -15 -789 0
-709 2 -755 19 -793 22 -48 44 -69 94 -90 32 -13 134 -15 789 -15 709 0 755 2
793 19 48 22 69 44 90 94 13 32 15 134 15 787 0 653 -2 755 -15 787 -21 50
-42 72 -90 94 -38 18 -84 19 -795 19 -711 0 -757 -1 -795 -19z m829 -301 c218
-23 337 -151 337 -360 0 -140 -46 -240 -141 -301 -27 -18 -50 -34 -50 -36 0
-2 54 -102 120 -222 66 -120 122 -225 126 -235 5 -14 -5 -16 -98 -16 l-105 0
-73 138 c-41 75 -81 151 -90 167 -9 17 -29 54 -45 83 l-28 52 -119 0 -118 0 0
-220 0 -221 -92 3 -93 3 -3 575 c-1 316 0 581 3 588 5 15 331 17 469 2z"/>
<path d="M650 1121 l0 -201 113 0 c263 0 336 48 325 216 -6 85 -28 124 -91
156 -36 18 -64 22 -194 26 l-153 5 0 -202z"/>
</g>
</svg>
