<?xml version="1.0" standalone="no"?>
<!DOCTYPE svg PUBLIC "-//W3C//DTD SVG 20010904//EN"
 "http://www.w3.org/TR/2001/REC-SVG-20010904/DTD/svg10.dtd">
<svg version="1.0" xmlns="http://www.w3.org/2000/svg"
 width="16.000000pt" height="16.000000pt" viewBox="0 0 16.000000 16.000000"
 preserveAspectRatio="xMidYMid meet">

<g transform="translate(0.000000,16.000000) scale(0.100000,-0.100000)"
fill="#000000" stroke="none">
<path d="M4 147 c-3 -8 -4 -43 -2 -78 l3 -64 75 0 75 0 0 75 0 75 -73 3 c-55
2 -74 -1 -78 -11z m101 -71 c1 -45 0 -47 -13 -27 -18 26 -32 27 -32 1 0 -11
-4 -20 -10 -20 -5 0 -10 23 -10 51 l0 50 33 -3 c31 -3 32 -4 32 -52z"/>
<path d="M60 100 c0 -15 5 -20 18 -18 9 2 17 10 17 18 0 8 -8 16 -17 18 -13 2
-18 -3 -18 -18z"/>
</g>
</svg>
