<?xml version="1.0" standalone="no"?>
<!DOCTYPE svg PUBLIC "-//W3C//DTD SVG 20010904//EN"
 "http://www.w3.org/TR/2001/REC-SVG-20010904/DTD/svg10.dtd">
<svg version="1.0" xmlns="http://www.w3.org/2000/svg"
 width="32.000000pt" height="32.000000pt" viewBox="0 0 32.000000 32.000000"
 preserveAspectRatio="xMidYMid meet">

<g transform="translate(0.000000,32.000000) scale(0.100000,-0.100000)"
fill="#000000" stroke="none">
<path d="M12 308 c-17 -17 -17 -279 0 -296 17 -17 279 -17 296 0 17 17 17 279
0 296 -17 17 -279 17 -296 0z m202 -70 c21 -29 20 -51 -3 -79 -18 -22 -18 -24
0 -53 24 -39 24 -46 1 -46 -11 0 -25 14 -35 35 -23 49 -57 49 -57 0 0 -28 -4
-35 -20 -35 -19 0 -20 7 -20 100 l0 100 59 0 c51 0 62 -3 75 -22z"/>
<path d="M120 196 c0 -31 3 -36 23 -36 33 0 49 15 45 41 -2 19 -10 25 -35 27
-32 3 -33 2 -33 -32z"/>
</g>
</svg>
